<svg xmlns="http://www.w3.org/2000/svg" width="128" height="128" viewBox="0 0 128 128" id="acrylicstyle"><title>Acrylic Style</title><path fill-rule="evenodd" d="M65.94 128c-2.85-.28-5.7-.52-8.53-.83-2.44-.28-4.34-1.7-6.04-3.32-1.5-1.43-2.73-2.25-5.1-1.38-5.97 2.2-11.23-.08-16.02-3.6-1.9-1.4-3.16-3.44-3.65-5.83-.2-.9-.58-1.34-1.54-.98-3.36 1.25-6.46.07-9.65-.9-2.37-.7-4.45-1.83-6.36-3.35-2.7-2.13-3.56-5.2-4.04-8.36-.42-2.74-.43-5.54-.9-8.26-.52-3-.5-5.94 0-8.93.16-1.05-.14-2.2-.2-3.28-.04-.8-.02-1.57-.03-2.35-.05-2.37-.14-4.73-.15-7.1 0-1.8.13-3.6.17-5.4.03-1.84.03-3.68.07-5.52l.15-1.57c.02-1.58.12-3.16 0-4.73-.22-2.77.52-5.34 1.62-7.8 1.14-2.54 2.5-4.98 3.7-7.48 1.36-2.8 3.38-4.95 6.07-6.46 1.9-1.07 3.53-2.4 4.2-4.55.25-.8.28-1.67.4-2.5.43-2.75.7-5.52 1.3-8.2.86-3.76 2.6-7.16 5.15-10.05 3.62-4.1 8.3-5.87 13.67-4.8 3.1.62 6 .42 8.98-.28h10.63c.13 0 .28 0 .4.05 3.87 1.47 7.64 1.05 11.68.2 4.77-.98 9.7-.4 13.56 3.14 1.24 1.14 2 2.82 2.84 4.34.4.74.47 1.67.72 2.64 1.37-.28 2.65-.55 3.93-.8 3-.6 5.74.53 8.5 1.36 1.46.43 2.92 1.06 4.17 1.9 1.2.83 2.32 1.92 3.13 3.13 1.36 2.03 2.37 4.3 3.7 6.36.4.65 1.27 1.17 2.05 1.45 3.25 1.2 5.5 3.38 6.67 6.63.12.33.16.73.38.98 1.78 2.03 2.13 4.6 2.7 7.08v9.5c-.23 1.34-.54 2.68-.68 4.03-.1 1.06-.25 2.22.05 3.2 1.3 4.34.46 8.5-.8 12.62-.2.65-.6 1.3-1.08 1.8-1.5 1.5-1.83 3.4-1.74 5.34.13 2.74-.4 5.35-1.18 7.94-.25.83-.43 1.73-.42 2.6.04 4.34-.95 8.33-3.46 11.98-.98 1.42-1.37 3.22-2.15 4.8-1.2 2.36-2.74 4.4-4.82 6.2-2.55 2.18-4.7 4.86-6.97 7.37-.36.4-.63.98-.74 1.52-.7 3.36-2.65 5.83-5.48 7.6-3.63 2.28-7.46 2.44-11.34.68-.9-.4-1.47-.14-2.3.16-2.22.8-4.54 1.32-6.82 1.96H65.9" opacity=".14"/><path fill="#fff" d="M36.16 3.94c-1.75.62-3.53 1.16-5 2.47-3.82 3.43-5.53 7.87-6.35 12.73-.28 1.7-.06 3.5-.08 5.25 0 .13.05.26 0 .37-1.16 2.62-1.84 5.55-4.38 7.34-1.3.9-2.73 1.6-3.93 2.6-1 .84-1.97 1.9-2.62 3.05-1.46 2.6-2.7 5.36-4.1 8-1.2 2.25-1.38 4.6-.96 7.06.07.44.1.86.1 1.3-.06 1.97-.07 3.94-.2 5.9-.08 1.1-.34 2.22-.53 3.3v6.64c.86 1.86.82 3.7 0 5.56v2.97c.84 1.6.72 3.16 0 4.75v5.56c.34 1.9.76 3.83 1.02 5.75.18 1.4.06 2.82.22 4.22.47 4.02 3.2 5.97 6.72 7.16.62.22 1.28.4 1.88.66 3.8 1.66 7.14.43 10.34-1.68.56-.37 1.23-.57 1.85-.85l.3.35c-.12.98-.4 1.96-.34 2.93.3 6.23 2.6 8.2 8.18 10.08 3.56 1.2 6.97.87 9.8-1.97.28-.27.6-.48 1-.8.6.54 1.18 1.07 1.73 1.62 1.26 1.24 2.5 2.5 3.73 3.75 1.64 1.7 3.6 2.37 5.97 2.28 1.26-.05 2.54.3 3.8.47h11.1c1.42-.65 2.87-1.2 4.2-2 .94-.58 1.7-1.52 2.62-2.38 1.3 1.85 2.9 3.02 5.1 3.32 4.43.6 7.47-2.33 8.4-6.13.48-1.93 1.5-3.53 2.75-4.87 2.37-2.54 5.02-4.8 7.47-7.28.82-.83 1.48-1.9 2-2.94.86-1.73 1.5-3.53 2.3-5.28.28-.6.8-1.06 1.14-1.63 1.44-2.43 2.18-5.03 2.28-7.9.07-2.07.67-4.13 1.03-6.2.13-.8.37-1.63.4-2.46.05-2.2 0-4.43.03-6.63 0-.48.1-1.14.4-1.4 2-1.7 3.18-3.86 3.63-6.44 0-.1.16-.16.25-.25v-5.3c-.46-1.03-.93-2.02-1.37-3.04-.1-.22-.17-.52-.1-.74.47-1.4 1-2.78 1.48-4.16V37.1c-.95-2-1.92-3.95-2.87-5.94-.9-1.9-2.3-3.2-4.34-3.78-1.1-.3-2.18-.67-3.23-1.1-.28-.12-.56-.55-.6-.87-.36-3.24-2.52-5.56-4.18-8.12-1.3-1.97-3.6-2.24-5.6-2.97-3.62-1.32-7-1.02-10.32 1.2-1 .66-2.7.28-4.06.3-.18.03-.48-.5-.48-.78-.02-.96-.07-1.94.12-2.88.4-1.97.15-3.87-1.03-5.4-.7-.9-2-1.35-3.06-1.9-.7-.38-1.5-.58-2.28-.85h-5.57c-3.12 1.37-6.24 2.48-9.63.77-.72-.37-1.54-.52-2.3-.78H48.57L44.8 5.3c-.17.05-.35.13-.5.1-1.66-.47-3.3-.97-4.97-1.45h-3.2zm41.1 6.25c.17.04.32.13.43.27l-.45-.28z"/><path fill="#f0585c" d="M105.3 31.22l-.65 1.3 5.7 2.92.62-1.22c-.65-.82-1.32-1.42-2.38-1.75-.3-.1-.6-.16-.88-.22-.88-.17-1.7-.55-2.4-1.03z"/><path fill="#edf05a" d="M73.25 10.3c-.57.08-1.13.17-1.66.36-1.35.46-2.7.8-4.04.96l3.97 2.04 1.72-3.35z"/><path fill="#bef0f0" d="M58.09 63.46l2.5-4.93-5.7-2.9-2.6 5.12-5.14-2.4-2.72 5.77 4.95 2.32-2.5 4.9 5.7 2.9 2.58-5.08 5.23 2.45 2.72-5.77-5.04-2.37z"/><path fill="#edf05a" d="M77.97 60.62l2.5-4.93-5.68-2.9-2.6 5.1-5.15-2.4-2.7 5.78 4.95 2.32-2.5 4.9 5.7 2.9 2.6-5.08 5.22 2.45 2.72-5.8L78 60.63z"/><path fill="#f02cf0" d="M77.97 79.56l2.5-4.93-5.68-2.9-2.6 5.1-5.15-2.4-2.7 5.8 4.95 2.3-2.5 4.9 5.7 2.9 2.6-5.08 5.22 2.45 2.72-5.8L78 79.55z"/><path fill="#eeefcb" d="M58.09 43.58l2.5-4.93-5.7-2.9-2.6 5.12-5.14-2.42-2.72 5.8 4.95 2.3-2.5 4.9 5.7 2.9 2.58-5.08 5.23 2.45 2.72-5.8-5.04-2.36z"/><path fill="#6d5af0" d="M77.97 40.74l2.5-4.94-5.68-2.9-2.6 5.13-5.15-2.42-2.72 5.8 4.96 2.32-2.5 4.9 5.7 2.9 2.6-5.1 5.22 2.46 2.7-5.78L78 40.74z"/><path fill="#f138f1" d="M74.78 13.97l-2.6 5.12-5.12-2.4-2.72 5.77 4.97 2.3-2.5 4.92 5.7 2.9 2.6-5.1 5.24 2.44 2.72-5.78L78 21.78l1.2-2.34c-.72-.92-1.2-2-1.32-3.25l-.04-.67-3.06-1.56z"/><path fill="#f0585c" d="M58.09 24.64l2.5-4.93-5.7-2.9-2.6 5.13-5.14-2.4-2.72 5.77 4.95 2.33-2.5 4.9 5.7 2.9 2.58-5.1 5.23 2.46 2.72-5.8-5.04-2.36z"/><path fill="#09f0ce" d="M40.1 53.05l2.5-4.94-5.7-2.9-2.6 5.13-5.13-2.4-2.72 5.78 4.96 2.33-2.5 4.9 5.7 2.9 2.6-5.08 5.23 2.45 2.72-5.78-5.04-2.36z"/><path fill="#f0c3f0" d="M40.1 71.98l2.5-4.93-5.7-2.9-2.6 5.12-5.13-2.4-2.72 5.77 4.96 2.33-2.5 4.9 5.7 2.9 2.6-5.1 5.23 2.46 2.72-5.78-5.04-2.37z"/><path fill="#eeefcb" d="M55.84 92.56l-2.6 5.13-5.1-2.42-2.73 5.78 4.98 2.3-2.5 4.92.6.3c1.77-.22 3.58.4 5.15 1.86l.2.22 2.33-4.57 5.25 2.46 2.73-5.78-5.07-2.37-.03-.03 2.5-4.9-5.7-2.9z"/><path fill="#21a3f0" d="M35.97 83.1l-2.6 5.12-5.15-2.44-2.72 5.8 4.97 2.33-2.25 4.4c.72-.12 1.5-.15 2.28-.08.76.06 1.65-.04 2.25.3.7.43 1.3.9 1.8 1.42l1.73-3.35 5.22 2.46 2.72-5.78-5.03-2.37h-.04l2.5-4.9-5.7-2.9z"/><path fill="#f1c8f1" d="M96.9 71.98l2.52-4.93-5.7-2.9-2.6 5.12-5.14-2.4-2.72 5.77 4.95 2.33-2.48 4.9 5.7 2.9 2.58-5.1 5.23 2.46 2.7-5.78-5.03-2.37z"/><path fill="#21a3f0" d="M96.9 90.92L99.42 86l-5.7-2.9-2.6 5.1-5.14-2.4-2.72 5.78 4.95 2.32-2.48 4.9 5.7 2.9L94 96.6l5.23 2.46 2.7-5.78-5.03-2.36z"/><path fill="#09f0ce" d="M97.85 52.1l2.5-4.93-5.68-2.9-2.6 5.12-5.15-2.42-2.7 5.78 4.94 2.33-2.5 4.9 5.7 2.9 2.58-5.1 5.22 2.46 2.7-5.78-5.03-2.36z"/><path fill="#21a3f0" d="M96.9 33.16l2.52-4.93-5.7-2.9-2.6 5.12-5.14-2.4-2.72 5.78 4.95 2.33-2.48 4.9 5.7 2.9 2.58-5.1 5.23 2.46 2.7-5.78-5.03-2.36z"/><path fill="#6e5bf0" d="M77.97 98.5l2.5-4.94-5.68-2.9-2.6 5.12-5.15-2.4-2.7 5.78 4.95 2.33-2.5 4.9 5.7 2.9 2.6-5.1 5.23 2.47 2.72-5.78L78 98.52z"/><path fill="#21a3f0" d="M35.97 25.34l-2.6 5.1-3.56-1.66c-.1.25-.22.5-.36.75-.5.88-.94 1.8-1.35 2.72-.37.8-.83 1.53-1.35 2.2l3.72 1.7-2.5 4.9 5.7 2.92 2.6-5.1 5.23 2.47 2.72-5.78-5.03-2.37-.04-.04 2.5-4.94-5.7-2.88z"/><path fill="#f0585c" d="M58.09 82.4l2.5-4.93-5.7-2.9-2.6 5.12-5.14-2.43-2.72 5.8 4.95 2.3-2.5 4.9 5.7 2.9 2.58-5.07 5.23 2.45 2.72-5.78-5.04-2.36z"/><path fill="#bef0f0" d="M112.66 56.56L111 59.8l-5.15-2.4-2.72 5.8 4.97 2.3-2.5 4.9 3.7 1.88c-.04-.58-.08-1.15-.14-1.72-.26-2.64.66-4.6 2.6-6.28 1.8-1.6 2.3-5.03 1.15-7.2l-.24-.52z"/><path fill="#eeefcb" d="M112.75 37.4L111 40.9l-5.16-2.4-2.72 5.77 4.97 2.3-2.5 4.92 5.68 2.87.62-1.22c.04-.48.12-.94.3-1.4 1.23-2.8 1.27-5.65 1.17-8.85l-.1-.1c.12-1.75.1-3.55-.52-5.36z"/><path fill="#09f0cf" d="M93.72 102.03l-2.6 5.13-5.15-2.4-2.72 5.77 4.97 2.3-.97 1.92c.4.43 1.16.95 1.44.8.58-.25 1.3-1 1.33-1.58.14-2.8 1.93-4.75 3.5-6.66 1.04-1.26 2.18-2.47 3.35-3.64l-3.16-1.63z"/><path fill="#edf05a" d="M74.78 110.56l-2.6 5.1-5.12-2.4-1.5 3.18c1.67.06 3.34.14 5 .25 2.98.18 5.48-.34 7.72-2.73.4-.42.8-.74 1.25-1l-4.75-2.4z"/><path fill="#09f0ce" d="M36.9 102.03l-.5 1c.3 1.16.3 2.47-.06 3.9-.3 1.2-.1 2.46.88 3.3 1.97 1.67 4 2 6 1.08l-3.13-1.43 2.5-4.93-5.7-2.9z"/><path fill="#6d5af0" d="M17.03 90.66l-2 3.93c.1.94.22 1.9.3 2.84.12 1.12.6 1.9 1.7 2.28.9.3 1.9.5 2.72.97 1.65.9 3.14.6 4.44-.33L20.2 98.5l2.5-4.94-5.7-2.9z"/><path fill="#f02cf0" d="M17.03 71.72l-2.44 4.84c0 .6-.03 1.2-.04 1.82 0 1.62 0 3.24-.03 4.87-.03 1.4-.26 2.83-.16 4.22l.25 2.8.1.07 2.62-5.1 5.22 2.48 2.72-5.78-5.06-2.38 2.5-4.93-5.7-2.9z"/><path fill="#edf05a" d="M17.03 52.78l-2.25 4.44v1.97l-.06 3.3-.06 8v.87l.06.04 2.62-5.1 5.22 2.48 2.72-5.8-5.06-2.36 2.5-4.93-5.7-2.92z"/><path fill="#6d5af0" d="M21.13 38.94c-1.12.74-2.14 1.6-2.7 3.06-.8 2.13-2.1 4.08-3 6.2-.4.96-.58 2.1-.65 3.18l2.53-4.94 5.23 2.47 2.72-5.78-5.03-2.37.9-1.8z"/><path fill="#f0c3f0" d="M37.6 10.03c-.9.02-1.7.33-2.4 1.03-3.2 3.2-4.57 7.16-4.42 11.53l2.88 1.46 2.6-5.1 5.2 2.48 2.73-5.8-5.04-2.36 1.34-2.65c-.66-.2-1.32-.42-2-.54-.3-.06-.6-.07-.9-.07z"/><path fill="#bef0f0" d="M52.56 10c-1.54 0-3.07.08-4.6.53l-1.05 2.13 5.7 2.87 2.6-5.06 5.2 2.44 1-2.12c-2.3-.63-4.55-.8-6.9-.78h-1.94z"/><path fill="#f0c3f0" d="M94.34 19.5c-.83.04-1.64.34-2.43.9-.85.62-1.92 1.14-2.96 1.3-1.03.13-2.05.2-3.1.2l-.12.23 5.7 2.87L94 19.94l5.22 2.44.5-1.07c-.04-.06-.1-.13-.13-.2-.05-.1-.23-.15-.35-.2-1.12-.4-2.2-.83-3.34-1.18-.53-.17-1.05-.24-1.56-.22z"/><path fill="#bef0f0" d="M58.4 115.16l.38.38c.3.28.7.63 1.1.65.2 0 .4 0 .6.02l-2.07-1.06z"/><path fill="#f0585c" d="M104.9 77.28l-2.7 5.78 4.96 2.3-2.5 4.92 1.28.66c.95-1.52 1.7-3.03 1.75-4.88.02-1.62.17-3.24.43-4.84.12-.74.33-1.46.53-2.2l-3.75-1.74z"/></svg>