<?xml version="1.0" encoding="UTF-8" standalone="no"?>
<svg
   xmlns:dc="http://purl.org/dc/elements/1.1/"
   xmlns:cc="http://creativecommons.org/ns#"
   xmlns:rdf="http://www.w3.org/1999/02/22-rdf-syntax-ns#"
   xmlns:svg="http://www.w3.org/2000/svg"
   xmlns="http://www.w3.org/2000/svg"
   xmlns:sodipodi="http://sodipodi.sourceforge.net/DTD/sodipodi-0.dtd"
   xmlns:inkscape="http://www.inkscape.org/namespaces/inkscape"
   width="100%"
   height="100%"
   viewBox="0 0 609 609"
   version="1.1"
   xml:space="preserve"
   style="fill-rule:evenodd;clip-rule:evenodd;stroke-linejoin:round;stroke-miterlimit:1.41421;"
   id="svg2"
   inkscape:version="0.91 r13725"
   sodipodi:docname="logo.svg"
   inkscape:export-filename="C:\Users\Hugh\Google Drive\Code Projects\tBrowser App\logo.png"
   inkscape:export-xdpi="18.916256"
   inkscape:export-ydpi="18.916256"><metadata
     id="metadata188"><rdf:RDF><cc:Work
         rdf:about=""><dc:format>image/svg+xml</dc:format><dc:type
           rdf:resource="http://purl.org/dc/dcmitype/StillImage" /><dc:title></dc:title></cc:Work></rdf:RDF></metadata><defs
     id="defs186"><clipPath
       id="_clip1"><rect
         x="58.257999"
         y="20.851999"
         width="491.82501"
         height="566.28998"
         id="rect13" /></clipPath></defs><sodipodi:namedview
     pagecolor="#ffffff"
     bordercolor="#666666"
     borderopacity="1"
     objecttolerance="10"
     gridtolerance="10"
     guidetolerance="10"
     inkscape:pageopacity="0"
     inkscape:pageshadow="2"
     inkscape:window-width="1920"
     inkscape:window-height="1017"
     id="namedview184"
     showgrid="false"
     inkscape:zoom="1.0960736"
     inkscape:cx="294.62521"
     inkscape:cy="335.08348"
     inkscape:window-x="-8"
     inkscape:window-y="-8"
     inkscape:window-maximized="1"
     inkscape:current-layer="layer4" /><g
     inkscape:groupmode="layer"
     id="layer2"
     inkscape:label="Border"
     style="display:inline"
     sodipodi:insensitive="true"><path
       inkscape:connector-curvature="0"
       id="path6"
       style="clip-rule:evenodd;fill:#339cef;fill-opacity:1;fill-rule:nonzero;stroke-linejoin:round;stroke-miterlimit:1.41420996"
       d="M 48.333,150 298.75,5.417 c 3.333,-2.084 7.5,-2.084 10.833,0 L 560,150 c 3.333,2.083 5.417,5.417 5.417,9.583 l 0,289.167 c 0,3.75 -2.084,7.5 -5.417,9.583 L 309.583,602.917 c -3.333,2.083 -7.5,2.083 -10.833,0 L 48.333,458.333 C 45,456.25 42.917,452.917 42.917,448.75 l 0,-289.167 c 0,-3.75 2.083,-7.5 5.416,-9.583 z" /></g><g
     inkscape:groupmode="layer"
     id="layer3"
     inkscape:label="Background"
     style="display:inline"
     sodipodi:insensitive="true"><path
       inkscape:connector-curvature="0"
       id="path8"
       style="clip-rule:evenodd;fill:#242930;fill-rule:nonzero;stroke-linejoin:round;stroke-miterlimit:1.41420996"
       d="M 68.333,162.083 299.167,28.75 c 2.916,-1.667 7.083,-1.667 10,0 L 540,162.083 c 2.917,1.667 5,5 5,8.75 l 0,266.667 c 0,3.75 -2.083,7.083 -5,8.75 L 309.167,579.583 c -2.917,1.667 -7.084,1.667 -10,0 L 68.333,446.25 c -2.916,-1.667 -5,-5 -5,-8.75 l 0,-266.667 c 0,-3.75 1.667,-6.666 5,-8.75 z" /></g><g
     inkscape:groupmode="layer"
     id="layer1"
     inkscape:label="Hearts"
     style="display:inline;opacity:0.4"
     sodipodi:insensitive="true"><path
       d="m 141.802,212.527 c -0.356,0 -0.707,-0.091 -1.023,-0.266 L 59.603,165.395 c -0.638,-0.374 -1.034,-1.052 -1.034,-1.787 0,-0.741 0.396,-1.419 1.034,-1.787 l 81.215,-46.895 c 0.639,-0.367 1.425,-0.367 2.07,0 0.639,0.368 1.029,1.058 1.029,1.787 l 0,93.739 c 0,0.74 -0.396,1.425 -1.046,1.792 -0.323,0.181 -0.701,0.283 -1.069,0.283 z m -77.036,-48.919 75.023,43.31 0,-86.626 -75.023,43.316 z"
       style="clip-rule:evenodd;fill:#339cef;fill-opacity:1;fill-rule:nonzero;stroke-linejoin:round;stroke-miterlimit:1.41420996"
       id="path19"
       inkscape:connector-curvature="0" /><path
       d="m 60.638,259.405 c -0.356,0 -0.707,-0.097 -1.035,-0.277 -0.638,-0.374 -1.034,-1.052 -1.034,-1.787 l 0,-93.733 c 0,-0.741 0.396,-1.419 1.034,-1.787 0.639,-0.373 1.425,-0.373 2.07,0 l 81.175,46.867 c 0.639,0.367 1.029,1.051 1.029,1.786 0,0.735 -0.39,1.42 -1.029,1.787 l -81.175,46.872 c -0.322,0.175 -0.679,0.272 -1.035,0.272 z m 2.064,-92.224 0,86.581 74.984,-43.293 -74.984,-43.288 z"
       style="clip-rule:evenodd;fill:#339cef;fill-opacity:1;fill-rule:nonzero;stroke-linejoin:round;stroke-miterlimit:1.41420996"
       id="path21"
       inkscape:connector-curvature="0" /><path
       d="m 223.068,165.672 c -0.362,0 -0.712,-0.096 -1.035,-0.277 L 140.818,118.5 c -0.639,-0.368 -1.034,-1.052 -1.034,-1.787 0,-0.735 0.395,-1.47 1.034,-1.837 l 81.215,-46.89 c 0.639,-0.373 1.425,-0.373 2.064,0 0.639,0.362 1.035,1.052 1.035,1.787 l 0,93.829 c 0,0.735 -0.396,1.414 -1.035,1.787 -0.317,0.187 -0.673,0.283 -1.029,0.283 z m -77.127,-48.981 75.063,43.338 0,-86.677 -75.063,43.339 z"
       style="clip-rule:evenodd;fill:#339cef;fill-opacity:1;fill-rule:nonzero;stroke-linejoin:round;stroke-miterlimit:1.41420996"
       id="path23"
       inkscape:connector-curvature="0" /><path
       d="m 223.068,165.672 c -0.362,0 -0.712,-0.096 -1.035,-0.277 -0.639,-0.374 -1.029,-1.052 -1.029,-1.787 l 0,-93.829 c 0,-0.741 0.39,-1.425 1.029,-1.787 0.639,-0.373 1.425,-0.373 2.064,0 l 81.215,46.889 c 0.644,0.368 1.04,1.052 1.04,1.787 0,0.735 -0.39,1.464 -1.04,1.832 l -81.215,46.895 c -0.317,0.181 -0.673,0.277 -1.029,0.277 z m 2.064,-92.32 0,86.677 75.057,-43.338 -75.057,-43.339 z"
       style="clip-rule:evenodd;fill:#339cef;fill-opacity:1;fill-rule:nonzero;stroke-linejoin:round;stroke-miterlimit:1.41420996"
       id="path25"
       inkscape:connector-curvature="0" /><path
       d="m 141.893,212.538 c -0.357,0 -0.707,-0.096 -1.018,-0.271 l -0.04,-0.023 c -0.644,-0.367 -1.046,-1.057 -1.046,-1.792 l 0,-93.739 c 0,-0.735 0.396,-1.419 1.035,-1.787 0.639,-0.373 1.425,-0.373 2.069,0 l 81.215,46.89 c 0.639,0.367 1.035,1.051 1.035,1.786 0,0.735 -0.396,1.414 -1.035,1.787 l -81.175,46.866 c -0.328,0.187 -0.684,0.283 -1.04,0.283 z m 2.024,-92.246 0,86.626 75.023,-43.31 -75.023,-43.316 z"
       style="clip-rule:evenodd;fill:#339cef;fill-opacity:1;fill-rule:nonzero;stroke-linejoin:round;stroke-miterlimit:1.41420996"
       id="path27"
       inkscape:connector-curvature="0" /><path
       d="m 304.238,212.527 c -0.362,0 -0.718,-0.091 -1.024,-0.266 l -81.181,-46.866 c -0.639,-0.374 -1.029,-1.052 -1.029,-1.787 0,-0.741 0.39,-1.419 1.029,-1.787 l 81.221,-46.895 c 0.639,-0.367 1.425,-0.367 2.058,0 0.644,0.368 1.04,1.052 1.04,1.787 l 0,93.739 c 0,0.74 -0.396,1.425 -1.051,1.792 -0.328,0.181 -0.696,0.283 -1.063,0.283 z m -77.043,-48.919 75.018,43.31 0,-86.626 -75.018,43.316 z"
       style="clip-rule:evenodd;fill:#339cef;fill-opacity:1;fill-rule:nonzero;stroke-linejoin:round;stroke-miterlimit:1.41420996"
       id="path29"
       inkscape:connector-curvature="0" /><path
       d="m 304.238,118.732 c -0.362,0 -0.718,-0.09 -1.024,-0.266 L 222.033,71.6 c -0.639,-0.373 -1.029,-1.052 -1.029,-1.787 0,-0.741 0.39,-1.419 1.029,-1.787 l 81.221,-46.894 c 0.639,-0.368 1.425,-0.368 2.058,0 0.644,0.367 1.04,1.051 1.04,1.786 l 0,93.739 c 0,0.741 -0.396,1.425 -1.051,1.792 -0.328,0.181 -0.696,0.283 -1.063,0.283 z m -77.043,-48.919 75.018,43.31 0,-86.626 -75.018,43.316 z"
       style="clip-rule:evenodd;fill:#339cef;fill-opacity:1;fill-rule:nonzero;stroke-linejoin:round;stroke-miterlimit:1.41420996"
       id="path31"
       inkscape:connector-curvature="0" /><path
       d="m 223.068,259.405 c -0.362,0 -0.712,-0.097 -1.035,-0.277 -0.639,-0.374 -1.029,-1.052 -1.029,-1.787 l 0,-93.733 c 0,-0.741 0.39,-1.419 1.029,-1.787 0.639,-0.373 1.425,-0.373 2.064,0 l 81.181,46.867 c 0.633,0.367 1.035,1.051 1.035,1.786 0,0.735 -0.396,1.42 -1.035,1.787 l -81.181,46.872 c -0.317,0.175 -0.673,0.272 -1.029,0.272 z m 2.064,-92.224 0,86.581 74.984,-43.293 -74.984,-43.288 z"
       style="clip-rule:evenodd;fill:#339cef;fill-opacity:1;fill-rule:nonzero;stroke-linejoin:round;stroke-miterlimit:1.41420996"
       id="path33"
       inkscape:connector-curvature="0" /><path
       d="m 223.068,259.405 c -0.362,0 -0.712,-0.097 -1.035,-0.277 l -81.175,-46.873 c -0.639,-0.367 -1.035,-1.051 -1.035,-1.786 0,-0.735 0.396,-1.419 1.035,-1.787 l 81.175,-46.866 c 0.639,-0.374 1.425,-0.374 2.064,0 0.639,0.367 1.035,1.051 1.035,1.786 l 0,93.733 c 0,0.741 -0.396,1.414 -1.035,1.787 -0.317,0.186 -0.673,0.283 -1.029,0.283 z m -77.048,-48.936 74.984,43.293 0,-86.581 -74.984,43.288 z"
       style="clip-rule:evenodd;fill:#339cef;fill-opacity:1;fill-rule:nonzero;stroke-linejoin:round;stroke-miterlimit:1.41420996"
       id="path35"
       inkscape:connector-curvature="0" /><path
       d="m 141.542,306.288 c -0.356,0 -0.712,-0.09 -1.035,-0.271 L 59.292,259.122 c -0.638,-0.368 -1.034,-1.052 -1.034,-1.787 0,-0.74 0.39,-1.47 1.034,-1.837 l 81.215,-46.889 c 0.639,-0.374 1.425,-0.374 2.064,0 0.639,0.361 1.035,1.051 1.035,1.786 l 0,93.835 c 0,0.735 -0.396,1.414 -1.035,1.787 -0.311,0.181 -0.673,0.271 -1.029,0.271 z m -77.127,-48.975 75.063,43.338 0,-86.677 -75.063,43.339 z"
       style="clip-rule:evenodd;fill:#339cef;fill-opacity:1;fill-rule:nonzero;stroke-linejoin:round;stroke-miterlimit:1.41420996"
       id="path37"
       inkscape:connector-curvature="0" /><path
       d="m 141.542,306.288 c -0.356,0 -0.712,-0.09 -1.035,-0.271 -0.639,-0.373 -1.034,-1.058 -1.034,-1.787 l 0,-93.829 c 0,-0.735 0.395,-1.419 1.034,-1.787 0.639,-0.373 1.425,-0.373 2.064,0 l 81.215,46.889 c 0.639,0.368 1.035,1.052 1.035,1.787 0,0.741 -0.396,1.464 -1.035,1.838 l -81.215,46.894 c -0.311,0.176 -0.673,0.266 -1.029,0.266 z m 2.064,-92.314 0,86.677 75.063,-43.338 -75.063,-43.339 z"
       style="clip-rule:evenodd;fill:#339cef;fill-opacity:1;fill-rule:nonzero;stroke-linejoin:round;stroke-miterlimit:1.41420996"
       id="path39"
       inkscape:connector-curvature="0" /><path
       d="m 60.367,353.155 c -0.351,0 -0.701,-0.085 -1.018,-0.266 l -0.04,-0.023 c -0.644,-0.367 -1.046,-1.057 -1.046,-1.798 l 0,-93.733 c 0,-0.74 0.391,-1.419 1.035,-1.786 0.639,-0.374 1.425,-0.374 2.064,0 l 81.215,46.889 c 0.639,0.367 1.034,1.051 1.034,1.786 0,0.735 -0.395,1.414 -1.034,1.787 l -81.176,46.861 c -0.322,0.192 -0.678,0.283 -1.034,0.283 z m 2.024,-92.241 0,86.626 75.024,-43.31 -75.024,-43.316 z"
       style="clip-rule:evenodd;fill:#339cef;fill-opacity:1;fill-rule:nonzero;stroke-linejoin:round;stroke-miterlimit:1.41420996"
       id="path41"
       inkscape:connector-curvature="0" /><path
       d="m 222.7,353.143 c -0.356,0 -0.706,-0.085 -1.017,-0.265 l -81.176,-46.861 c -0.639,-0.373 -1.034,-1.058 -1.034,-1.787 0,-0.741 0.395,-1.419 1.034,-1.787 l 81.215,-46.894 c 0.639,-0.368 1.425,-0.368 2.064,0 0.639,0.367 1.035,1.051 1.035,1.786 l 0,93.733 c 0,0.747 -0.402,1.431 -1.046,1.798 -0.323,0.192 -0.696,0.277 -1.075,0.277 z m -77.03,-48.913 75.023,43.31 0,-86.626 -75.023,43.316 z"
       style="clip-rule:evenodd;fill:#339cef;fill-opacity:1;fill-rule:nonzero;stroke-linejoin:round;stroke-miterlimit:1.41420996"
       id="path43"
       inkscape:connector-curvature="0" /><path
       d="m 141.542,400.027 c -0.356,0 -0.712,-0.096 -1.035,-0.283 -0.639,-0.362 -1.034,-1.052 -1.034,-1.781 l 0,-93.733 c 0,-0.741 0.395,-1.419 1.034,-1.787 0.639,-0.373 1.425,-0.373 2.064,0 l 81.175,46.867 c 0.639,0.362 1.035,1.051 1.035,1.781 0,0.741 -0.396,1.419 -1.035,1.787 l -81.175,46.866 c -0.311,0.192 -0.673,0.283 -1.029,0.283 z m 2.064,-92.224 0,86.581 74.984,-43.293 -74.984,-43.288 z"
       style="clip-rule:evenodd;fill:#339cef;fill-opacity:1;fill-rule:nonzero;stroke-linejoin:round;stroke-miterlimit:1.41420996"
       id="path45"
       inkscape:connector-curvature="0" /><path
       d="m 141.542,400.027 c -0.356,0 -0.712,-0.096 -1.035,-0.283 L 59.332,352.878 c -0.639,-0.368 -1.035,-1.052 -1.035,-1.787 0,-0.735 0.396,-1.419 1.035,-1.781 l 81.175,-46.867 c 0.639,-0.373 1.425,-0.373 2.064,0 0.639,0.368 1.035,1.052 1.035,1.787 l 0,93.733 c 0,0.735 -0.396,1.419 -1.035,1.781 -0.311,0.192 -0.673,0.283 -1.029,0.283 z m -77.048,-48.936 74.984,43.293 0,-86.581 -74.984,43.288 z"
       style="clip-rule:evenodd;fill:#339cef;fill-opacity:1;fill-rule:nonzero;stroke-linejoin:round;stroke-miterlimit:1.41420996"
       id="path47"
       inkscape:connector-curvature="0" /><path
       d="m 303.966,306.288 c -0.356,0 -0.707,-0.09 -1.029,-0.271 l -81.215,-46.895 c -0.639,-0.368 -1.034,-1.052 -1.034,-1.787 0,-0.74 0.395,-1.47 1.034,-1.837 l 81.215,-46.889 c 0.639,-0.374 1.425,-0.374 2.064,0 0.633,0.361 1.035,1.051 1.035,1.786 l 0,93.835 c 0,0.735 -0.396,1.414 -1.035,1.787 -0.311,0.181 -0.679,0.271 -1.035,0.271 z m -77.127,-48.975 75.063,43.338 0,-86.677 -75.063,43.339 z"
       style="clip-rule:evenodd;fill:#339cef;fill-opacity:1;fill-rule:nonzero;stroke-linejoin:round;stroke-miterlimit:1.41420996"
       id="path49"
       inkscape:connector-curvature="0" /><path
       d="m 303.966,306.288 c -0.356,0 -0.707,-0.09 -1.029,-0.271 -0.639,-0.373 -1.035,-1.058 -1.035,-1.787 l 0,-93.829 c 0,-0.735 0.391,-1.419 1.035,-1.787 0.639,-0.373 1.425,-0.373 2.064,0 l 81.215,46.889 c 0.644,0.368 1.035,1.052 1.035,1.787 0,0.741 -0.385,1.464 -1.035,1.838 l -81.215,46.894 c -0.311,0.176 -0.679,0.266 -1.035,0.266 z m 2.07,-92.314 0,86.677 75.057,-43.338 -75.057,-43.339 z"
       style="clip-rule:evenodd;fill:#339cef;fill-opacity:1;fill-rule:nonzero;stroke-linejoin:round;stroke-miterlimit:1.41420996"
       id="path51"
       inkscape:connector-curvature="0" /><path
       d="m 222.797,353.155 c -0.357,0 -0.707,-0.085 -1.024,-0.266 l -0.039,-0.023 c -0.645,-0.367 -1.046,-1.057 -1.046,-1.798 l 0,-93.733 c 0,-0.74 0.395,-1.419 1.034,-1.786 0.639,-0.374 1.425,-0.374 2.064,0 l 81.221,46.889 c 0.633,0.367 1.034,1.051 1.034,1.786 0,0.735 -0.396,1.414 -1.034,1.787 l -81.181,46.867 c -0.323,0.186 -0.673,0.277 -1.029,0.277 z m 2.024,-92.241 0,86.626 75.029,-43.31 -75.029,-43.316 z"
       style="clip-rule:evenodd;fill:#339cef;fill-opacity:1;fill-rule:nonzero;stroke-linejoin:round;stroke-miterlimit:1.41420996"
       id="path53"
       inkscape:connector-curvature="0" /><path
       d="m 385.136,353.143 c -0.356,0 -0.713,-0.085 -1.024,-0.265 l -81.175,-46.861 c -0.639,-0.373 -1.035,-1.058 -1.035,-1.787 0,-0.741 0.391,-1.419 1.035,-1.787 l 81.215,-46.894 c 0.645,-0.368 1.431,-0.368 2.064,0 0.644,0.367 1.035,1.051 1.035,1.786 l -0.006,93.733 c 0,0.747 -0.396,1.431 -1.046,1.798 -0.322,0.192 -0.696,0.277 -1.063,0.277 z m -77.037,-48.913 75.03,43.31 0,-86.626 -75.03,43.316 z"
       style="clip-rule:evenodd;fill:#339cef;fill-opacity:1;fill-rule:nonzero;stroke-linejoin:round;stroke-miterlimit:1.41420996"
       id="path55"
       inkscape:connector-curvature="0" /><path
       d="m 303.966,400.027 c -0.356,0 -0.707,-0.096 -1.029,-0.283 -0.639,-0.362 -1.035,-1.052 -1.035,-1.781 l 0,-93.733 c 0,-0.741 0.391,-1.419 1.035,-1.787 0.639,-0.373 1.425,-0.373 2.064,0 l 81.17,46.867 c 0.644,0.362 1.04,1.051 1.04,1.781 0,0.741 -0.39,1.419 -1.04,1.787 l -81.17,46.866 c -0.311,0.192 -0.679,0.283 -1.035,0.283 z m 2.07,-92.224 0,86.581 74.978,-43.293 -74.978,-43.288 z"
       style="clip-rule:evenodd;fill:#339cef;fill-opacity:1;fill-rule:nonzero;stroke-linejoin:round;stroke-miterlimit:1.41420996"
       id="path57"
       inkscape:connector-curvature="0" /><path
       d="m 303.966,400.027 c -0.356,0 -0.707,-0.096 -1.029,-0.283 l -81.175,-46.866 c -0.639,-0.368 -1.035,-1.052 -1.035,-1.787 0,-0.735 0.396,-1.419 1.035,-1.781 l 81.175,-46.867 c 0.639,-0.373 1.425,-0.373 2.064,0 0.633,0.368 1.035,1.052 1.035,1.787 l 0,93.733 c 0,0.735 -0.396,1.419 -1.035,1.781 -0.311,0.192 -0.679,0.283 -1.035,0.283 z m -77.042,-48.936 74.984,43.293 0,-86.581 -74.984,43.288 z"
       style="clip-rule:evenodd;fill:#339cef;fill-opacity:1;fill-rule:nonzero;stroke-linejoin:round;stroke-miterlimit:1.41420996"
       id="path59"
       inkscape:connector-curvature="0" /><path
       d="m 385.498,165.672 c -0.356,0 -0.713,-0.096 -1.035,-0.277 L 303.248,118.5 c -0.633,-0.368 -1.035,-1.052 -1.035,-1.787 0,-0.735 0.396,-1.47 1.035,-1.837 l 81.215,-46.89 c 0.639,-0.373 1.425,-0.373 2.064,0 0.639,0.362 1.034,1.052 1.034,1.787 l 0,93.829 c 0,0.735 -0.39,1.414 -1.034,1.787 -0.317,0.187 -0.679,0.283 -1.029,0.283 z m -77.133,-48.981 75.058,43.338 0,-86.677 -75.058,43.339 z"
       style="clip-rule:evenodd;fill:#339cef;fill-opacity:1;fill-rule:nonzero;stroke-linejoin:round;stroke-miterlimit:1.41420996"
       id="path61"
       inkscape:connector-curvature="0" /><path
       d="m 385.498,165.672 c -0.356,0 -0.713,-0.096 -1.035,-0.277 -0.633,-0.374 -1.04,-1.052 -1.04,-1.787 l 0,-93.829 c 0,-0.741 0.401,-1.425 1.04,-1.787 0.639,-0.373 1.425,-0.373 2.064,0 l 81.215,46.889 c 0.639,0.368 1.034,1.052 1.034,1.787 0,0.735 -0.39,1.464 -1.034,1.832 l -81.215,46.895 c -0.317,0.181 -0.679,0.277 -1.029,0.277 z m 2.063,-92.32 0,86.677 75.058,-43.338 -75.058,-43.339 z"
       style="clip-rule:evenodd;fill:#339cef;fill-opacity:1;fill-rule:nonzero;stroke-linejoin:round;stroke-miterlimit:1.41420996"
       id="path63"
       inkscape:connector-curvature="0" /><path
       d="m 304.311,212.538 c -0.35,0 -0.695,-0.096 -1.012,-0.271 l -0.04,-0.023 c -0.644,-0.367 -1.051,-1.057 -1.051,-1.792 l 0,-93.739 c 0,-0.735 0.396,-1.419 1.034,-1.787 0.639,-0.373 1.425,-0.373 2.059,0 l 81.22,46.89 c 0.639,0.367 1.035,1.051 1.035,1.786 0,0.735 -0.39,1.414 -1.035,1.787 l -81.175,46.866 c -0.311,0.187 -0.673,0.283 -1.035,0.283 z m 2.036,-92.246 0,86.626 75.023,-43.31 -75.023,-43.316 z"
       style="clip-rule:evenodd;fill:#339cef;fill-opacity:1;fill-rule:nonzero;stroke-linejoin:round;stroke-miterlimit:1.41420996"
       id="path65"
       inkscape:connector-curvature="0" /><path
       d="m 304.311,118.743 c -0.35,0 -0.695,-0.096 -1.012,-0.271 l -0.04,-0.023 c -0.644,-0.367 -1.051,-1.057 -1.051,-1.792 l 0,-93.739 c 0,-0.735 0.396,-1.419 1.034,-1.786 0.639,-0.374 1.425,-0.374 2.059,0 l 81.22,46.889 c 0.639,0.367 1.035,1.051 1.035,1.786 0,0.735 -0.39,1.414 -1.035,1.787 l -81.175,46.867 c -0.311,0.186 -0.673,0.282 -1.035,0.282 z m 2.036,-92.246 0,86.626 75.023,-43.31 -75.023,-43.316 z"
       style="clip-rule:evenodd;fill:#339cef;fill-opacity:1;fill-rule:nonzero;stroke-linejoin:round;stroke-miterlimit:1.41420996"
       id="path67"
       inkscape:connector-curvature="0" /><path
       d="m 466.662,212.527 c -0.356,0 -0.713,-0.091 -1.024,-0.266 l -81.175,-46.866 c -0.633,-0.374 -1.04,-1.052 -1.04,-1.787 0,-0.741 0.401,-1.419 1.04,-1.787 l 81.215,-46.895 c 0.645,-0.367 1.43,-0.367 2.064,0 0.639,0.368 1.034,1.052 1.034,1.787 l 0,93.739 c 0,0.74 -0.395,1.425 -1.051,1.792 -0.317,0.181 -0.696,0.283 -1.063,0.283 z m -77.037,-48.919 75.018,43.31 0,-86.626 -75.018,43.316 z"
       style="clip-rule:evenodd;fill:#339cef;fill-opacity:1;fill-rule:nonzero;stroke-linejoin:round;stroke-miterlimit:1.41420996"
       id="path69"
       inkscape:connector-curvature="0" /><path
       d="m 385.498,259.405 c -0.356,0 -0.713,-0.097 -1.035,-0.277 -0.633,-0.374 -1.04,-1.052 -1.04,-1.787 l 0,-93.733 c 0,-0.741 0.401,-1.419 1.04,-1.787 0.639,-0.373 1.425,-0.373 2.064,0 l 81.175,46.867 c 0.633,0.367 1.04,1.051 1.04,1.786 0,0.735 -0.401,1.42 -1.04,1.787 l -81.175,46.872 c -0.317,0.175 -0.679,0.272 -1.029,0.272 z m 2.063,-92.224 0,86.581 74.985,-43.293 -74.985,-43.288 z"
       style="clip-rule:evenodd;fill:#339cef;fill-opacity:1;fill-rule:nonzero;stroke-linejoin:round;stroke-miterlimit:1.41420996"
       id="path71"
       inkscape:connector-curvature="0" /><path
       d="m 385.498,259.405 c -0.356,0 -0.713,-0.097 -1.035,-0.277 l -81.175,-46.873 c -0.639,-0.367 -1.035,-1.051 -1.035,-1.786 0,-0.735 0.39,-1.419 1.035,-1.787 l 81.175,-46.866 c 0.639,-0.374 1.425,-0.374 2.064,0 0.639,0.367 1.034,1.051 1.034,1.786 l 0,93.733 c 0,0.741 -0.39,1.414 -1.034,1.787 -0.317,0.186 -0.679,0.283 -1.029,0.283 z m -77.048,-48.936 74.978,43.293 0,-86.581 -74.978,43.288 z"
       style="clip-rule:evenodd;fill:#339cef;fill-opacity:1;fill-rule:nonzero;stroke-linejoin:round;stroke-miterlimit:1.41420996"
       id="path73"
       inkscape:connector-curvature="0" /><path
       d="m 60.638,446.475 c -0.356,0 -0.707,-0.091 -1.035,-0.277 -0.638,-0.362 -1.034,-1.052 -1.034,-1.781 l 0,-93.835 c 0,-0.741 0.396,-1.419 1.034,-1.781 0.639,-0.373 1.425,-0.373 2.07,0 l 81.215,46.889 c 0.639,0.362 1.029,1.046 1.029,1.787 0,0.735 -0.39,1.464 -1.029,1.832 l -81.215,46.889 c -0.322,0.186 -0.679,0.277 -1.035,0.277 z m 2.064,-92.314 0,86.682 75.063,-43.349 -75.063,-43.333 z"
       style="clip-rule:evenodd;fill:#339cef;fill-opacity:1;fill-rule:nonzero;stroke-linejoin:round;stroke-miterlimit:1.41420996"
       id="path75"
       inkscape:connector-curvature="0" /><path
       d="m 141.802,493.336 c -0.356,0 -0.707,-0.091 -1.023,-0.277 L 59.603,446.198 c -0.638,-0.362 -1.034,-1.052 -1.034,-1.781 0,-0.741 0.396,-1.419 1.034,-1.787 l 81.215,-46.895 c 0.639,-0.367 1.425,-0.367 2.07,0 0.639,0.368 1.029,1.058 1.029,1.787 l 0,93.739 c 0,0.74 -0.396,1.424 -1.046,1.786 -0.323,0.193 -0.701,0.289 -1.069,0.289 z m -77.036,-48.919 75.023,43.304 0,-86.62 -75.023,43.316 z"
       style="clip-rule:evenodd;fill:#339cef;fill-opacity:1;fill-rule:nonzero;stroke-linejoin:round;stroke-miterlimit:1.41420996"
       id="path77"
       inkscape:connector-curvature="0" /><path
       d="m 223.068,446.475 c -0.362,0 -0.712,-0.091 -1.035,-0.277 l -81.215,-46.889 c -0.639,-0.368 -1.034,-1.052 -1.034,-1.787 0,-0.735 0.395,-1.47 1.034,-1.832 l 81.215,-46.889 c 0.639,-0.373 1.425,-0.373 2.064,0 0.639,0.362 1.035,1.046 1.035,1.781 l 0,93.835 c 0,0.735 -0.396,1.419 -1.035,1.781 -0.317,0.186 -0.673,0.277 -1.029,0.277 z m -77.127,-48.976 75.063,43.344 0,-86.682 -75.063,43.338 z"
       style="clip-rule:evenodd;fill:#339cef;fill-opacity:1;fill-rule:nonzero;stroke-linejoin:round;stroke-miterlimit:1.41420996"
       id="path79"
       inkscape:connector-curvature="0" /><path
       d="m 223.068,446.475 c -0.362,0 -0.712,-0.091 -1.035,-0.277 -0.639,-0.362 -1.029,-1.052 -1.029,-1.781 l 0,-93.835 c 0,-0.741 0.39,-1.419 1.029,-1.781 0.639,-0.373 1.425,-0.373 2.064,0 l 81.215,46.889 c 0.644,0.362 1.04,1.046 1.04,1.787 0,0.735 -0.39,1.464 -1.04,1.832 l -81.215,46.889 c -0.317,0.186 -0.673,0.277 -1.029,0.277 z m 2.064,-92.314 0,86.682 75.057,-43.349 -75.057,-43.333 z"
       style="clip-rule:evenodd;fill:#339cef;fill-opacity:1;fill-rule:nonzero;stroke-linejoin:round;stroke-miterlimit:1.41420996"
       id="path81"
       inkscape:connector-curvature="0" /><path
       d="m 141.893,493.347 c -0.357,0 -0.707,-0.091 -1.018,-0.271 l -0.04,-0.029 c -0.644,-0.362 -1.046,-1.051 -1.046,-1.786 l 0,-93.739 c 0,-0.735 0.396,-1.414 1.035,-1.787 0.639,-0.367 1.425,-0.367 2.069,0 l 81.215,46.895 c 0.639,0.368 1.035,1.052 1.035,1.787 0,0.735 -0.396,1.419 -1.035,1.781 l -81.175,46.861 c -0.328,0.192 -0.684,0.288 -1.04,0.288 z m 2.024,-92.246 0,86.62 75.023,-43.304 -75.023,-43.316 z"
       style="clip-rule:evenodd;fill:#339cef;fill-opacity:1;fill-rule:nonzero;stroke-linejoin:round;stroke-miterlimit:1.41420996"
       id="path83"
       inkscape:connector-curvature="0" /><path
       d="m 304.238,493.336 c -0.362,0 -0.718,-0.091 -1.024,-0.277 l -81.181,-46.861 c -0.639,-0.362 -1.029,-1.052 -1.029,-1.781 0,-0.741 0.39,-1.419 1.029,-1.787 l 81.221,-46.895 c 0.639,-0.367 1.425,-0.367 2.058,0 0.644,0.368 1.04,1.058 1.04,1.787 l 0,93.739 c 0,0.74 -0.396,1.424 -1.051,1.786 -0.328,0.193 -0.696,0.289 -1.063,0.289 z m -77.043,-48.919 75.018,43.304 0,-86.62 -75.018,43.316 z"
       style="clip-rule:evenodd;fill:#339cef;fill-opacity:1;fill-rule:nonzero;stroke-linejoin:round;stroke-miterlimit:1.41420996"
       id="path85"
       inkscape:connector-curvature="0" /><path
       d="m 223.068,540.208 c -0.362,0 -0.712,-0.096 -1.035,-0.272 -0.639,-0.367 -1.029,-1.057 -1.029,-1.786 l 0,-93.733 c 0,-0.741 0.39,-1.419 1.029,-1.787 0.639,-0.367 1.425,-0.367 2.064,0 l 81.181,46.867 c 0.633,0.367 1.035,1.046 1.035,1.781 0,0.735 -0.396,1.419 -1.035,1.781 l -81.181,46.877 c -0.317,0.176 -0.673,0.272 -1.029,0.272 z m 2.064,-92.218 0,86.581 74.984,-43.293 -74.984,-43.288 z"
       style="clip-rule:evenodd;fill:#339cef;fill-opacity:1;fill-rule:nonzero;stroke-linejoin:round;stroke-miterlimit:1.41420996"
       id="path87"
       inkscape:connector-curvature="0" /><path
       d="m 223.068,540.208 c -0.362,0 -0.712,-0.096 -1.035,-0.272 l -81.175,-46.877 c -0.639,-0.362 -1.035,-1.046 -1.035,-1.781 0,-0.735 0.396,-1.414 1.035,-1.781 l 81.175,-46.867 c 0.639,-0.367 1.425,-0.367 2.064,0 0.639,0.368 1.035,1.052 1.035,1.787 l 0,93.733 c 0,0.735 -0.396,1.419 -1.035,1.786 -0.317,0.176 -0.673,0.272 -1.029,0.272 z m -77.048,-48.93 74.984,43.293 0,-86.581 -74.984,43.288 z"
       style="clip-rule:evenodd;fill:#339cef;fill-opacity:1;fill-rule:nonzero;stroke-linejoin:round;stroke-miterlimit:1.41420996"
       id="path89"
       inkscape:connector-curvature="0" /><path
       d="m 385.498,446.475 c -0.356,0 -0.713,-0.091 -1.035,-0.277 l -81.215,-46.889 c -0.633,-0.368 -1.035,-1.052 -1.035,-1.787 0,-0.735 0.396,-1.47 1.035,-1.832 l 81.215,-46.889 c 0.639,-0.373 1.425,-0.373 2.064,0 0.639,0.362 1.034,1.046 1.034,1.781 l 0,93.835 c 0,0.735 -0.39,1.419 -1.034,1.781 -0.317,0.186 -0.679,0.277 -1.029,0.277 z m -77.133,-48.976 75.058,43.344 0,-86.682 -75.058,43.338 z"
       style="clip-rule:evenodd;fill:#339cef;fill-opacity:1;fill-rule:nonzero;stroke-linejoin:round;stroke-miterlimit:1.41420996"
       id="path91"
       inkscape:connector-curvature="0" /><path
       d="m 385.498,446.475 c -0.356,0 -0.713,-0.091 -1.035,-0.277 -0.633,-0.362 -1.04,-1.052 -1.04,-1.781 l 0,-93.835 c 0,-0.741 0.401,-1.419 1.04,-1.781 0.639,-0.373 1.425,-0.373 2.064,0 l 81.215,46.889 c 0.639,0.362 1.034,1.046 1.034,1.787 0,0.735 -0.39,1.464 -1.034,1.832 l -81.215,46.889 c -0.317,0.186 -0.679,0.277 -1.029,0.277 z m 2.063,-92.314 0,86.682 75.058,-43.349 -75.058,-43.333 z"
       style="clip-rule:evenodd;fill:#339cef;fill-opacity:1;fill-rule:nonzero;stroke-linejoin:round;stroke-miterlimit:1.41420996"
       id="path93"
       inkscape:connector-curvature="0" /><path
       d="m 304.311,493.347 c -0.35,0 -0.695,-0.091 -1.012,-0.271 l -0.04,-0.029 c -0.644,-0.362 -1.051,-1.051 -1.051,-1.786 l 0,-93.739 c 0,-0.735 0.396,-1.414 1.034,-1.787 0.639,-0.367 1.425,-0.367 2.059,0 l 81.22,46.895 c 0.639,0.368 1.035,1.052 1.035,1.787 0,0.735 -0.39,1.419 -1.035,1.781 l -81.175,46.861 c -0.311,0.192 -0.673,0.288 -1.035,0.288 z m 2.036,-92.246 0,86.62 75.023,-43.304 -75.023,-43.316 z"
       style="clip-rule:evenodd;fill:#339cef;fill-opacity:1;fill-rule:nonzero;stroke-linejoin:round;stroke-miterlimit:1.41420996"
       id="path95"
       inkscape:connector-curvature="0" /><path
       d="m 466.662,493.336 c -0.356,0 -0.713,-0.091 -1.024,-0.277 l -81.175,-46.861 c -0.633,-0.362 -1.04,-1.052 -1.04,-1.781 0,-0.741 0.401,-1.419 1.04,-1.787 l 81.215,-46.895 c 0.645,-0.367 1.43,-0.367 2.064,0 0.639,0.368 1.034,1.058 1.034,1.787 l 0,93.739 c 0,0.74 -0.395,1.424 -1.051,1.786 -0.317,0.193 -0.696,0.289 -1.063,0.289 z m -77.037,-48.919 75.018,43.304 0,-86.62 -75.018,43.316 z"
       style="clip-rule:evenodd;fill:#339cef;fill-opacity:1;fill-rule:nonzero;stroke-linejoin:round;stroke-miterlimit:1.41420996"
       id="path97"
       inkscape:connector-curvature="0" /><path
       d="m 385.498,540.208 c -0.356,0 -0.713,-0.096 -1.035,-0.272 -0.633,-0.367 -1.04,-1.057 -1.04,-1.786 l 0,-93.733 c 0,-0.741 0.401,-1.419 1.04,-1.787 0.639,-0.367 1.425,-0.367 2.064,0 l 81.175,46.867 c 0.633,0.367 1.04,1.046 1.04,1.781 0,0.735 -0.401,1.419 -1.04,1.781 l -81.175,46.877 c -0.317,0.176 -0.679,0.272 -1.029,0.272 z m 2.063,-92.218 0,86.581 74.985,-43.293 -74.985,-43.288 z"
       style="clip-rule:evenodd;fill:#339cef;fill-opacity:1;fill-rule:nonzero;stroke-linejoin:round;stroke-miterlimit:1.41420996"
       id="path99"
       inkscape:connector-curvature="0" /><path
       d="m 385.498,540.208 c -0.356,0 -0.713,-0.096 -1.035,-0.272 l -81.175,-46.877 c -0.639,-0.362 -1.035,-1.046 -1.035,-1.781 0,-0.735 0.39,-1.414 1.035,-1.781 l 81.175,-46.867 c 0.639,-0.367 1.425,-0.367 2.064,0 0.639,0.368 1.034,1.052 1.034,1.787 l 0,93.733 c 0,0.735 -0.39,1.419 -1.034,1.786 -0.317,0.176 -0.679,0.272 -1.029,0.272 z m -77.048,-48.93 74.978,43.293 0,-86.581 -74.978,43.288 z"
       style="clip-rule:evenodd;fill:#339cef;fill-opacity:1;fill-rule:nonzero;stroke-linejoin:round;stroke-miterlimit:1.41420996"
       id="path101"
       inkscape:connector-curvature="0" /><path
       d="m 466.488,306.288 c -0.357,0 -0.707,-0.09 -1.029,-0.271 l -81.215,-46.895 c -0.639,-0.368 -1.035,-1.052 -1.035,-1.787 0,-0.74 0.396,-1.47 1.035,-1.837 l 81.215,-46.889 c 0.638,-0.374 1.424,-0.374 2.063,0 0.634,0.361 1.035,1.051 1.035,1.786 l 0,93.835 c 0,0.735 -0.396,1.414 -1.035,1.787 -0.311,0.181 -0.678,0.271 -1.034,0.271 z m -77.127,-48.975 75.063,43.338 0,-86.677 -75.063,43.339 z"
       style="clip-rule:evenodd;fill:#339cef;fill-opacity:1;fill-rule:nonzero;stroke-linejoin:round;stroke-miterlimit:1.41420996"
       id="path103"
       inkscape:connector-curvature="0" /><path
       d="m 385.318,353.155 c -0.356,0 -0.707,-0.085 -1.023,-0.266 l -0.04,-0.023 c -0.645,-0.367 -1.046,-1.057 -1.046,-1.798 l 0,-93.733 c 0,-0.74 0.396,-1.419 1.035,-1.786 0.639,-0.374 1.424,-0.374 2.063,0 l 81.221,46.889 c 0.633,0.367 1.035,1.051 1.035,1.786 0,0.735 -0.396,1.414 -1.035,1.787 l -81.181,46.867 c -0.322,0.186 -0.673,0.277 -1.029,0.277 z m 2.024,-92.241 0,86.626 75.029,-43.31 -75.029,-43.316 z"
       style="clip-rule:evenodd;fill:#339cef;fill-opacity:1;fill-rule:nonzero;stroke-linejoin:round;stroke-miterlimit:1.41420996"
       id="path105"
       inkscape:connector-curvature="0" /><path
       d="m 547.657,353.143 c -0.356,0 -0.712,-0.085 -1.023,-0.265 l -81.175,-46.861 c -0.639,-0.373 -1.035,-1.058 -1.035,-1.787 0,-0.741 0.39,-1.419 1.035,-1.787 l 81.214,-46.894 c 0.645,-0.368 1.431,-0.368 2.064,0 0.645,0.367 1.035,1.051 1.035,1.786 l -0.006,93.733 c 0,0.747 -0.396,1.431 -1.046,1.798 -0.322,0.192 -0.695,0.277 -1.063,0.277 z m -77.036,-48.913 75.029,43.31 0,-86.626 -75.029,43.316 z"
       style="clip-rule:evenodd;fill:#339cef;fill-opacity:1;fill-rule:nonzero;stroke-linejoin:round;stroke-miterlimit:1.41420996"
       id="path107"
       inkscape:connector-curvature="0" /><path
       d="m 466.488,400.027 c -0.357,0 -0.707,-0.096 -1.029,-0.283 -0.639,-0.362 -1.035,-1.052 -1.035,-1.781 l 0,-93.733 c 0,-0.741 0.39,-1.419 1.035,-1.787 0.638,-0.373 1.424,-0.373 2.063,0 l 81.17,46.867 c 0.644,0.362 1.04,1.051 1.04,1.781 0,0.741 -0.39,1.419 -1.04,1.787 l -81.17,46.866 c -0.311,0.192 -0.678,0.283 -1.034,0.283 z m 2.069,-92.224 0,86.581 74.978,-43.293 -74.978,-43.288 z"
       style="clip-rule:evenodd;fill:#339cef;fill-opacity:1;fill-rule:nonzero;stroke-linejoin:round;stroke-miterlimit:1.41420996"
       id="path109"
       inkscape:connector-curvature="0" /><path
       d="m 466.488,493.258 c -0.357,0 -0.707,-0.096 -1.029,-0.283 -0.639,-0.361 -1.035,-1.051 -1.035,-1.781 l 0,-93.733 c 0,-0.74 0.39,-1.419 1.035,-1.786 0.638,-0.373 1.424,-0.373 2.063,0 l 81.17,46.866 c 0.644,0.362 1.04,1.052 1.04,1.781 0,0.741 -0.39,1.419 -1.04,1.787 l -81.17,46.866 c -0.311,0.193 -0.678,0.283 -1.034,0.283 z m 2.069,-92.223 0,86.58 74.978,-43.293 -74.978,-43.287 z"
       style="clip-rule:evenodd;fill:#339cef;fill-opacity:1;fill-rule:nonzero;stroke-linejoin:round;stroke-miterlimit:1.41420996"
       id="path111"
       inkscape:connector-curvature="0" /><path
       d="m 466.488,400.027 c -0.357,0 -0.707,-0.096 -1.029,-0.283 l -81.176,-46.866 c -0.639,-0.368 -1.034,-1.052 -1.034,-1.787 0,-0.735 0.395,-1.419 1.034,-1.781 l 81.176,-46.867 c 0.638,-0.373 1.424,-0.373 2.063,0 0.634,0.368 1.035,1.052 1.035,1.787 l 0,93.733 c 0,0.735 -0.396,1.419 -1.035,1.781 -0.311,0.192 -0.678,0.283 -1.034,0.283 z m -77.043,-48.936 74.984,43.293 0,-86.581 -74.984,43.288 z"
       style="clip-rule:evenodd;fill:#339cef;fill-opacity:1;fill-rule:nonzero;stroke-linejoin:round;stroke-miterlimit:1.41420996"
       id="path113"
       inkscape:connector-curvature="0" /><path
       d="m 548.019,259.405 c -0.356,0 -0.712,-0.097 -1.035,-0.277 l -81.175,-46.873 c -0.639,-0.367 -1.035,-1.051 -1.035,-1.786 0,-0.735 0.391,-1.419 1.035,-1.787 l 81.175,-46.866 c 0.639,-0.374 1.425,-0.374 2.064,0 0.639,0.367 1.035,1.051 1.035,1.786 l 0,93.733 c 0,0.741 -0.39,1.414 -1.035,1.787 -0.317,0.186 -0.678,0.283 -1.029,0.283 z m -77.048,-48.936 74.979,43.293 0,-86.581 -74.979,43.288 z"
       style="clip-rule:evenodd;fill:#339cef;fill-opacity:1;fill-rule:nonzero;stroke-linejoin:round;stroke-miterlimit:1.41420996"
       id="path115"
       inkscape:connector-curvature="0" /><path
       d="m 548.019,446.475 c -0.356,0 -0.712,-0.091 -1.035,-0.277 l -81.215,-46.889 c -0.633,-0.368 -1.034,-1.052 -1.034,-1.787 0,-0.735 0.396,-1.47 1.034,-1.832 l 81.215,-46.889 c 0.639,-0.373 1.425,-0.373 2.064,0 0.639,0.362 1.035,1.046 1.035,1.781 l 0,93.835 c 0,0.735 -0.39,1.419 -1.035,1.781 -0.317,0.186 -0.678,0.277 -1.029,0.277 z m -77.133,-48.976 75.058,43.344 0,-86.682 -75.058,43.338 z"
       style="clip-rule:evenodd;fill:#339cef;fill-opacity:1;fill-rule:nonzero;stroke-linejoin:round;stroke-miterlimit:1.41420996"
       id="path117"
       inkscape:connector-curvature="0" /><path
       d="m 466.832,212.538 c -0.35,0 -0.695,-0.096 -1.012,-0.271 l -0.039,-0.023 c -0.645,-0.367 -1.052,-1.057 -1.052,-1.792 l 0,-93.739 c 0,-0.735 0.396,-1.419 1.035,-1.787 0.639,-0.373 1.425,-0.373 2.058,0 l 81.22,46.89 c 0.639,0.367 1.035,1.051 1.035,1.786 0,0.735 -0.39,1.414 -1.035,1.787 l -81.175,46.866 c -0.311,0.187 -0.673,0.283 -1.035,0.283 z m 2.036,-92.246 0,86.626 75.024,-43.31 -75.024,-43.316 z"
       style="clip-rule:evenodd;fill:#339cef;fill-opacity:1;fill-rule:nonzero;stroke-linejoin:round;stroke-miterlimit:1.41420996"
       id="path119"
       inkscape:connector-curvature="0" /><path
       d="m 304.238,587.13 c -0.362,0 -0.718,-0.09 -1.024,-0.277 l -81.181,-46.86 c -0.639,-0.362 -1.029,-1.052 -1.029,-1.781 0,-0.741 0.39,-1.42 1.029,-1.787 l 81.221,-46.895 c 0.639,-0.367 1.425,-0.367 2.058,0 0.644,0.368 1.04,1.057 1.04,1.787 l 0,93.738 c 0,0.741 -0.396,1.425 -1.051,1.787 -0.328,0.192 -0.696,0.288 -1.063,0.288 z m -77.043,-48.918 75.018,43.304 0,-86.62 -75.018,43.316 z"
       style="clip-rule:evenodd;fill:#339cef;fill-opacity:1;fill-rule:nonzero;stroke-linejoin:round;stroke-miterlimit:1.41420996"
       id="path121"
       inkscape:connector-curvature="0" /><path
       d="m 304.311,587.142 c -0.35,0 -0.695,-0.091 -1.012,-0.272 l -0.04,-0.028 c -0.644,-0.362 -1.051,-1.052 -1.051,-1.787 l 0,-93.738 c 0,-0.735 0.396,-1.414 1.034,-1.787 0.639,-0.367 1.425,-0.367 2.059,0 l 81.22,46.895 c 0.639,0.367 1.035,1.052 1.035,1.787 0,0.735 -0.39,1.419 -1.035,1.781 l -81.175,46.86 c -0.311,0.193 -0.673,0.289 -1.035,0.289 z m 2.036,-92.246 0,86.62 75.023,-43.304 -75.023,-43.316 z"
       style="clip-rule:evenodd;fill:#339cef;fill-opacity:1;fill-rule:nonzero;stroke-linejoin:round;stroke-miterlimit:1.41420996"
       id="path123"
       inkscape:connector-curvature="0" /><path
       d="m 324.336,106.704 c -0.537,-5.285 -5,-9.409 -10.427,-9.409 -4.349,0 -8.078,2.649 -9.665,6.421 -1.586,-3.772 -5.315,-6.421 -9.665,-6.421 -5.426,0 -9.89,4.124 -10.427,9.409 -0.036,0.352 -0.054,0.71 -0.054,1.072 0,12.735 15.629,18.745 20.146,27.239 4.518,-8.494 20.146,-14.504 20.146,-27.239 0,-0.362 -0.018,-0.72 -0.054,-1.072 z"
       style="clip-rule:evenodd;fill:#339cef;fill-opacity:1;fill-rule:nonzero;stroke-linejoin:round;stroke-miterlimit:1.41420996"
       id="path125"
       inkscape:connector-curvature="0" /><path
       d="m 324.336,201.079 c -0.537,-5.285 -5,-9.409 -10.427,-9.409 -4.349,0 -8.078,2.649 -9.665,6.421 -1.586,-3.772 -5.315,-6.421 -9.665,-6.421 -5.426,0 -9.89,4.124 -10.427,9.409 -0.036,0.352 -0.054,0.71 -0.054,1.072 0,12.735 15.629,18.745 20.146,27.239 4.518,-8.494 20.146,-14.504 20.146,-27.239 0,-0.362 -0.018,-0.72 -0.054,-1.072 z"
       style="clip-rule:evenodd;fill:#339cef;fill-opacity:1;fill-rule:nonzero;stroke-linejoin:round;stroke-miterlimit:1.41420996"
       id="path127"
       inkscape:connector-curvature="0" /><path
       d="m 324.128,295.246 c -0.537,-5.285 -5,-9.409 -10.427,-9.409 -4.349,0 -8.078,2.649 -9.665,6.421 -1.587,-3.772 -5.316,-6.421 -9.665,-6.421 -5.427,0 -9.89,4.124 -10.427,9.409 -0.036,0.352 -0.054,0.71 -0.054,1.072 0,12.734 15.628,18.745 20.146,27.238 4.517,-8.493 20.146,-14.503 20.146,-27.238 0,-0.362 -0.018,-0.72 -0.054,-1.072 z"
       style="clip-rule:evenodd;fill:#339cef;fill-opacity:1;fill-rule:nonzero;stroke-linejoin:round;stroke-miterlimit:1.41420996"
       id="path129"
       inkscape:connector-curvature="0" /><path
       d="m 324.128,387.954 c -0.537,-5.285 -5,-9.409 -10.427,-9.409 -4.349,0 -8.078,2.649 -9.665,6.421 -1.587,-3.772 -5.316,-6.421 -9.665,-6.421 -5.427,0 -9.89,4.124 -10.427,9.409 -0.036,0.352 -0.054,0.71 -0.054,1.072 0,12.735 15.628,18.745 20.146,27.239 4.517,-8.494 20.146,-14.504 20.146,-27.239 0,-0.362 -0.018,-0.72 -0.054,-1.072 z"
       style="clip-rule:evenodd;fill:#339cef;fill-opacity:1;fill-rule:nonzero;stroke-linejoin:round;stroke-miterlimit:1.41420996"
       id="path131"
       inkscape:connector-curvature="0" /><path
       d="m 243.294,153.996 c -0.537,-5.285 -5,-9.409 -10.426,-9.409 -4.35,0 -8.079,2.649 -9.665,6.421 -1.587,-3.772 -5.316,-6.421 -9.665,-6.421 -5.427,0 -9.891,4.124 -10.427,9.409 -0.036,0.352 -0.054,0.71 -0.054,1.072 0,12.734 15.628,18.745 20.146,27.238 4.517,-8.493 20.145,-14.503 20.145,-27.238 0,-0.362 -0.018,-0.72 -0.054,-1.072 z"
       style="clip-rule:evenodd;fill:#339cef;fill-opacity:1;fill-rule:nonzero;stroke-linejoin:round;stroke-miterlimit:1.41420996"
       id="path133"
       inkscape:connector-curvature="0" /><path
       d="m 243.294,248.371 c -0.537,-5.285 -5,-9.409 -10.426,-9.409 -4.35,0 -8.079,2.649 -9.665,6.421 -1.587,-3.772 -5.316,-6.421 -9.665,-6.421 -5.427,0 -9.891,4.124 -10.427,9.409 -0.036,0.352 -0.054,0.71 -0.054,1.072 0,12.734 15.628,18.745 20.146,27.238 4.517,-8.493 20.145,-14.503 20.145,-27.238 0,-0.362 -0.018,-0.72 -0.054,-1.072 z"
       style="clip-rule:evenodd;fill:#339cef;fill-opacity:1;fill-rule:nonzero;stroke-linejoin:round;stroke-miterlimit:1.41420996"
       id="path135"
       inkscape:connector-curvature="0" /><path
       d="m 243.086,342.538 c -0.537,-5.286 -5,-9.41 -10.427,-9.41 -4.349,0 -8.078,2.65 -9.665,6.422 -1.586,-3.772 -5.315,-6.422 -9.665,-6.422 -5.426,0 -9.89,4.124 -10.427,9.41 -0.036,0.352 -0.054,0.71 -0.054,1.071 0,12.735 15.629,18.745 20.146,27.239 4.518,-8.493 20.146,-14.504 20.146,-27.239 0,-0.361 -0.018,-0.719 -0.054,-1.071 z"
       style="clip-rule:evenodd;fill:#339cef;fill-opacity:1;fill-rule:nonzero;stroke-linejoin:round;stroke-miterlimit:1.41420996"
       id="path137"
       inkscape:connector-curvature="0" /><path
       d="m 243.086,435.246 c -0.537,-5.285 -5,-9.409 -10.427,-9.409 -4.349,0 -8.078,2.649 -9.665,6.421 -1.586,-3.772 -5.315,-6.421 -9.665,-6.421 -5.426,0 -9.89,4.124 -10.427,9.409 -0.036,0.352 -0.054,0.71 -0.054,1.072 0,12.734 15.629,18.745 20.146,27.238 4.518,-8.493 20.146,-14.503 20.146,-27.238 0,-0.362 -0.018,-0.72 -0.054,-1.072 z"
       style="clip-rule:evenodd;fill:#339cef;fill-opacity:1;fill-rule:nonzero;stroke-linejoin:round;stroke-miterlimit:1.41420996"
       id="path139"
       inkscape:connector-curvature="0" /><path
       d="m 405.586,153.996 c -0.537,-5.285 -5,-9.409 -10.427,-9.409 -4.349,0 -8.078,2.649 -9.665,6.421 -1.586,-3.772 -5.315,-6.421 -9.665,-6.421 -5.426,0 -9.89,4.124 -10.427,9.409 -0.036,0.352 -0.054,0.71 -0.054,1.072 0,12.734 15.629,18.745 20.146,27.238 4.518,-8.493 20.146,-14.503 20.146,-27.238 0,-0.362 -0.018,-0.72 -0.054,-1.072 z"
       style="clip-rule:evenodd;fill:#339cef;fill-opacity:1;fill-rule:nonzero;stroke-linejoin:round;stroke-miterlimit:1.41420996"
       id="path141"
       inkscape:connector-curvature="0" /><path
       d="m 405.586,248.371 c -0.537,-5.285 -5,-9.409 -10.427,-9.409 -4.349,0 -8.078,2.649 -9.665,6.421 -1.586,-3.772 -5.315,-6.421 -9.665,-6.421 -5.426,0 -9.89,4.124 -10.427,9.409 -0.036,0.352 -0.054,0.71 -0.054,1.072 0,12.734 15.629,18.745 20.146,27.238 4.518,-8.493 20.146,-14.503 20.146,-27.238 0,-0.362 -0.018,-0.72 -0.054,-1.072 z"
       style="clip-rule:evenodd;fill:#339cef;fill-opacity:1;fill-rule:nonzero;stroke-linejoin:round;stroke-miterlimit:1.41420996"
       id="path143"
       inkscape:connector-curvature="0" /><path
       d="m 405.378,342.538 c -0.537,-5.286 -5,-9.41 -10.427,-9.41 -4.349,0 -8.078,2.65 -9.665,6.422 -1.587,-3.772 -5.316,-6.422 -9.665,-6.422 -5.427,0 -9.89,4.124 -10.427,9.41 -0.036,0.352 -0.054,0.71 -0.054,1.071 0,12.735 15.628,18.745 20.146,27.239 4.517,-8.493 20.146,-14.504 20.146,-27.239 0,-0.361 -0.018,-0.719 -0.054,-1.071 z"
       style="clip-rule:evenodd;fill:#339cef;fill-opacity:1;fill-rule:nonzero;stroke-linejoin:round;stroke-miterlimit:1.41420996"
       id="path145"
       inkscape:connector-curvature="0" /><path
       d="m 405.378,435.246 c -0.537,-5.285 -5,-9.409 -10.427,-9.409 -4.349,0 -8.078,2.649 -9.665,6.421 -1.587,-3.772 -5.316,-6.421 -9.665,-6.421 -5.427,0 -9.89,4.124 -10.427,9.409 -0.036,0.352 -0.054,0.71 -0.054,1.072 0,12.734 15.628,18.745 20.146,27.238 4.517,-8.493 20.146,-14.503 20.146,-27.238 0,-0.362 -0.018,-0.72 -0.054,-1.072 z"
       style="clip-rule:evenodd;fill:#339cef;fill-opacity:1;fill-rule:nonzero;stroke-linejoin:round;stroke-miterlimit:1.41420996"
       id="path147"
       inkscape:connector-curvature="0" /><path
       d="m 486.836,201.079 c -0.537,-5.285 -5,-9.409 -10.427,-9.409 -4.349,0 -8.078,2.649 -9.665,6.421 -1.586,-3.772 -5.315,-6.421 -9.665,-6.421 -5.426,0 -9.89,4.124 -10.427,9.409 -0.036,0.352 -0.054,0.71 -0.054,1.072 0,12.735 15.629,18.745 20.146,27.239 4.518,-8.494 20.146,-14.504 20.146,-27.239 0,-0.362 -0.018,-0.72 -0.054,-1.072 z"
       style="clip-rule:evenodd;fill:#339cef;fill-opacity:1;fill-rule:nonzero;stroke-linejoin:round;stroke-miterlimit:1.41420996"
       id="path149"
       inkscape:connector-curvature="0" /><path
       d="m 486.628,295.246 c -0.537,-5.285 -5,-9.409 -10.427,-9.409 -4.349,0 -8.078,2.649 -9.665,6.421 -1.587,-3.772 -5.316,-6.421 -9.665,-6.421 -5.427,0 -9.89,4.124 -10.427,9.409 -0.036,0.352 -0.054,0.71 -0.054,1.072 0,12.734 15.628,18.745 20.146,27.238 4.517,-8.493 20.146,-14.503 20.146,-27.238 0,-0.362 -0.018,-0.72 -0.054,-1.072 z"
       style="clip-rule:evenodd;fill:#339cef;fill-opacity:1;fill-rule:nonzero;stroke-linejoin:round;stroke-miterlimit:1.41420996"
       id="path151"
       inkscape:connector-curvature="0" /><path
       d="m 486.628,387.954 c -0.537,-5.285 -5,-9.409 -10.427,-9.409 -4.349,0 -8.078,2.649 -9.665,6.421 -1.587,-3.772 -5.316,-6.421 -9.665,-6.421 -5.427,0 -9.89,4.124 -10.427,9.409 -0.036,0.352 -0.054,0.71 -0.054,1.072 0,12.735 15.628,18.745 20.146,27.239 4.517,-8.494 20.146,-14.504 20.146,-27.239 0,-0.362 -0.018,-0.72 -0.054,-1.072 z"
       style="clip-rule:evenodd;fill:#339cef;fill-opacity:1;fill-rule:nonzero;stroke-linejoin:round;stroke-miterlimit:1.41420996"
       id="path153"
       inkscape:connector-curvature="0" /><path
       d="m 162.044,201.079 c -0.537,-5.285 -5,-9.409 -10.426,-9.409 -4.35,0 -8.079,2.649 -9.665,6.421 -1.587,-3.772 -5.316,-6.421 -9.665,-6.421 -5.427,0 -9.891,4.124 -10.427,9.409 -0.036,0.352 -0.054,0.71 -0.054,1.072 0,12.735 15.628,18.745 20.146,27.239 4.517,-8.494 20.145,-14.504 20.145,-27.239 0,-0.362 -0.018,-0.72 -0.054,-1.072 z"
       style="clip-rule:evenodd;fill:#339cef;fill-opacity:1;fill-rule:nonzero;stroke-linejoin:round;stroke-miterlimit:1.41420996"
       id="path155"
       inkscape:connector-curvature="0" /><path
       d="m 161.836,295.246 c -0.537,-5.285 -5,-9.409 -10.427,-9.409 -4.349,0 -8.078,2.649 -9.665,6.421 -1.586,-3.772 -5.315,-6.421 -9.665,-6.421 -5.426,0 -9.89,4.124 -10.427,9.409 -0.036,0.352 -0.054,0.71 -0.054,1.072 0,12.734 15.629,18.745 20.146,27.238 4.518,-8.493 20.146,-14.503 20.146,-27.238 0,-0.362 -0.018,-0.72 -0.054,-1.072 z"
       style="clip-rule:evenodd;fill:#339cef;fill-opacity:1;fill-rule:nonzero;stroke-linejoin:round;stroke-miterlimit:1.41420996"
       id="path157"
       inkscape:connector-curvature="0" /><path
       d="m 161.836,387.954 c -0.537,-5.285 -5,-9.409 -10.427,-9.409 -4.349,0 -8.078,2.649 -9.665,6.421 -1.586,-3.772 -5.315,-6.421 -9.665,-6.421 -5.426,0 -9.89,4.124 -10.427,9.409 -0.036,0.352 -0.054,0.71 -0.054,1.072 0,12.735 15.629,18.745 20.146,27.239 4.518,-8.494 20.146,-14.504 20.146,-27.239 0,-0.362 -0.018,-0.72 -0.054,-1.072 z"
       style="clip-rule:evenodd;fill:#339cef;fill-opacity:1;fill-rule:nonzero;stroke-linejoin:round;stroke-miterlimit:1.41420996"
       id="path159"
       inkscape:connector-curvature="0" /><path
       d="m 324.128,481.704 c -0.537,-5.285 -5,-9.409 -10.427,-9.409 -4.349,0 -8.078,2.649 -9.665,6.421 -1.587,-3.772 -5.316,-6.421 -9.665,-6.421 -5.427,0 -9.89,4.124 -10.427,9.409 -0.036,0.352 -0.054,0.71 -0.054,1.072 0,12.735 15.628,18.745 20.146,27.239 4.517,-8.494 20.146,-14.504 20.146,-27.239 0,-0.362 -0.018,-0.72 -0.054,-1.072 z"
       style="clip-rule:evenodd;fill:#339cef;fill-opacity:1;fill-rule:nonzero;stroke-linejoin:round;stroke-miterlimit:1.41420996"
       id="path161"
       inkscape:connector-curvature="0" /></g><g
     inkscape:groupmode="layer"
     id="layer4"
     inkscape:label="Big Heart"><path
       d="m 428.95754,257.13079 c -3.33191,-32.79188 -31.02351,-58.38008 -64.69647,-58.38008 -26.98426,0 -50.1216,16.43627 -59.96847,39.8404 -9.84688,-23.40413 -32.98423,-39.8404 -59.96848,-39.8404 -33.67295,0 -61.36455,25.5882 -64.69646,58.38008 -0.22339,2.18406 -0.33506,4.40532 -0.33506,6.65143 0,79.01073 96.96715,116.30722 125,169.00378 28.02666,-52.69656 125,-89.98685 125,-169.00378 0,-2.24611 -0.11175,-4.46737 -0.33506,-6.65143 z"
       style="clip-rule:evenodd;display:inline;opacity:1;fill:#339cef;fill-opacity:1;fill-rule:nonzero;stroke-linejoin:round;stroke-miterlimit:1.41420996"
       id="path129-7"
       inkscape:connector-curvature="0" /></g></svg>