<svg xmlns="http://www.w3.org/2000/svg" width="60" height="60"><g opacity=".1"><path fill="#23abfd" d="M23.633 38.222l5.915 3.014 2.693-5.287 5.434 2.548 2.819-6.012-5.238-2.456 2.612-5.126-5.918-3.014-2.71 5.321-5.342-2.505-2.82 6.011 5.148 2.414-2.594 5.093z"/><path fill="#fdcdfd" d="M23.633 18.55l5.915 3.014 2.693-5.287 5.434 2.548 2.819-6.012-5.238-2.456 2.612-5.126-5.918-3.014-2.71 5.321-5.342-2.505-2.82 6.011 5.148 2.414-2.594 5.093z"/><path fill="#735ffd" d="M3.961 46.091l5.915 3.014 2.693-5.287 5.434 2.548 2.819-6.012-5.238-2.456 2.612-5.126-5.918-3.014-2.71 5.321-5.342-2.505-2.82 6.011 5.148 2.414-2.594 5.093z"/><path fill="#fd2dfd" d="M3.961 26.419l5.915 3.014 2.693-5.287 5.434 2.548 2.819-6.012-5.238-2.456 2.612-5.126-5.918-3.014-2.71 5.321-5.342-2.505-2.82 6.011 5.148 2.414L3.96 26.42z"/><path fill="#0bfdd9" d="M23.633 57.894l5.915 3.014 2.693-5.287 5.434 2.548 2.819-6.012-5.238-2.456 2.612-5.126-5.918-3.014-2.71 5.321-5.342-2.505-2.82 6.011 5.148 2.414-2.594 5.093z"/><path fill="#fbfbd5" d="M43.306 49.042l5.915 3.014 2.693-5.287 5.434 2.548 2.819-6.012-5.238-2.456 2.612-5.126-5.918-3.014-2.71 5.321-5.342-2.505-2.82 6.011 5.148 2.414-2.594 5.093z"/><path fill="#fd5d61" d="M43.306 29.37l5.915 3.014 2.693-5.287 5.434 2.548 2.819-6.012-5.238-2.456 2.612-5.126-5.918-3.014-2.71 5.321-5.342-2.505-2.82 6.011 5.148 2.414-2.594 5.093z"/><path fill="#f9fd5f" d="M2.978 6.747l5.915 3.014 2.693-5.287 5.434 2.548 2.819-6.012-5.238-2.456 2.612-5.126-5.918-3.014-2.71 5.321L3.243-6.77.423-.759l5.148 2.414-2.594 5.093zm0 60l5.915 3.014 2.693-5.287 5.434 2.548 2.819-6.012-5.238-2.456 2.612-5.126-5.918-3.014-2.71 5.321-5.342-2.505-2.82 6.011 5.148 2.414-2.594 5.093z"/><path fill="#c7fdfd" d="M43.306 9.698l5.915 3.014 2.693-5.287 5.434 2.548 2.819-6.012-5.238-2.456 2.612-5.126-5.918-3.014-2.71 5.321-5.342-2.505-2.82 6.011 5.148 2.414-2.594 5.093zm0 60l5.915 3.014 2.693-5.287 5.434 2.548 2.819-6.012-5.238-2.456 2.612-5.126-5.918-3.014-2.71 5.321-5.342-2.505-2.82 6.011 5.148 2.414-2.594 5.093z"/></g></svg>